<svg width="28" height="24" viewBox="0 0 28 24" fill="none" xmlns="http://www.w3.org/2000/svg">
<path d="M26.7206 8.38282C26.3759 7.9503 25.8586 7.70217 25.3015 7.70217H20.2734L17.5469 1.459C17.3779 1.07191 16.927 0.895022 16.5398 1.06416C16.1527 1.2332 15.9759 1.68413 16.145 2.07127L18.6041 7.70223H9.50409L11.9632 2.07127C12.1322 1.68413 11.9555 1.23326 11.5684 1.06416C11.1813 0.895022 10.7304 1.07181 10.5613 1.459L7.8348 7.70223H2.80672C2.24958 7.70223 1.73236 7.9503 1.3876 8.38287C1.04916 8.80754 0.924279 9.35347 1.04498 9.88083L3.7301 21.6091C3.9176 22.4281 4.64205 23 5.49184 23H22.6164C23.4662 23 24.1906 22.4281 24.3781 21.6091L27.0632 9.88078C27.1839 9.35342 27.0591 8.80749 26.7206 8.38282ZM22.6164 21.4702H5.49184C5.36196 21.4702 5.2482 21.385 5.22132 21.2676L2.53621 9.53944C2.51515 9.4474 2.55048 9.37815 2.58394 9.33628C2.61494 9.29733 2.68516 9.232 2.80672 9.232H7.16674L6.96639 9.69078C6.79735 10.0779 6.97409 10.5288 7.36123 10.6979C7.46087 10.7414 7.56469 10.762 7.66693 10.762C7.96177 10.762 8.24274 10.5905 8.36828 10.3031L8.83604 9.23211H19.2723L19.74 10.3031C19.8656 10.5906 20.1466 10.762 20.4414 10.762C20.5436 10.762 20.6475 10.7414 20.7471 10.6979C21.1342 10.5288 21.311 10.0779 21.1419 9.69078L20.9416 9.232H25.3016C25.4232 9.232 25.4934 9.29733 25.5244 9.33628C25.5578 9.3782 25.5932 9.44745 25.5721 9.53939L22.887 21.2677C22.8601 21.385 22.7463 21.4702 22.6164 21.4702Z" fill="white" stroke="white" stroke-width="0.4"/>
<path d="M9.4646 12.5464C9.04217 12.5464 8.69971 12.8889 8.69971 13.3113V18.9205C8.69971 19.3429 9.04217 19.6853 9.4646 19.6853C9.88702 19.6853 10.2295 19.3429 10.2295 18.9205V13.3113C10.2295 12.8889 9.88707 12.5464 9.4646 12.5464Z" fill="white" stroke="white" stroke-width="0.4"/>
<path d="M14.054 12.5464C13.6315 12.5464 13.2891 12.8889 13.2891 13.3113V18.9205C13.2891 19.3429 13.6315 19.6853 14.054 19.6853C14.4764 19.6853 14.8188 19.3429 14.8188 18.9205V13.3113C14.8188 12.8889 14.4764 12.5464 14.054 12.5464Z" fill="white" stroke="white" stroke-width="0.4"/>
<path d="M18.6433 12.5464C18.2209 12.5464 17.8784 12.8889 17.8784 13.3113V18.9205C17.8784 19.3429 18.2209 19.6853 18.6433 19.6853C19.0657 19.6853 19.4082 19.3429 19.4082 18.9205V13.3113C19.4081 12.8889 19.0657 12.5464 18.6433 12.5464Z" fill="white" stroke="white" stroke-width="0.4"/>
</svg>
