<svg width="201" height="55" viewBox="0 0 201 55" fill="none" xmlns="http://www.w3.org/2000/svg">
<path d="M46.5661 7.37944L25.537 29.8946L25.4875 29.9937C24.9921 30.9845 24.4554 31.9917 23.8775 33.0155C23.2995 34.0558 22.6638 35.0631 21.9703 36.0374C21.2767 37.0281 20.5171 37.9611 19.6915 38.8363C18.8824 39.7115 17.9989 40.4711 17.0412 41.1151C16.0835 41.7756 15.0431 42.2957 13.9203 42.6755C12.7974 43.0553 11.592 43.2452 10.304 43.2452C9.11506 43.2452 7.95916 43.0388 6.83629 42.626C5.71342 42.2297 4.7144 41.6435 3.83922 40.8674C2.98056 40.0913 2.28702 39.1335 1.75861 37.9941C1.2302 36.8548 0.965998 35.5502 0.965998 34.0806C0.965998 33.4862 1.02379 32.8422 1.13938 32.1486C1.27148 31.4716 1.44487 30.7863 1.65953 30.0928C1.89071 29.3992 2.15492 28.7305 2.45215 28.0865C2.76589 27.4425 3.09615 26.8645 3.44292 26.3526C5.72168 23.017 8.90865 20.5649 13.0038 18.9962C14.6551 18.3687 16.3889 17.8898 18.2053 17.5596C20.0218 17.2293 21.929 17.0477 23.927 17.0146L22.7876 19.7888C19.0227 20.02 15.5798 20.9117 12.4589 22.4639C9.91593 23.7519 7.88485 25.4197 6.36568 27.4672C4.8465 29.5148 4.08691 31.5789 4.08691 33.6595C4.08691 34.6008 4.23553 35.4677 4.53276 36.2603C4.8465 37.0694 5.27583 37.763 5.82076 38.3409C6.38219 38.9189 7.05096 39.373 7.82706 39.7032C8.60316 40.0335 9.45357 40.1986 10.3783 40.1986C11.4186 40.1986 12.4424 40.0004 13.4497 39.6041C14.4735 39.2243 15.4642 38.6547 16.422 37.8951C17.3797 37.152 18.2797 36.2355 19.1218 35.1457C19.9805 34.0558 20.7731 32.8091 21.4996 31.4055C21.5822 31.2404 21.7061 31.001 21.8712 30.6872C22.0528 30.357 22.3088 29.8203 22.639 29.0772C22.9858 28.3342 23.4399 27.3104 24.0013 26.0059C24.5628 24.7013 25.2728 22.9758 26.1315 20.8291C27.0067 18.6824 28.0552 16.0487 29.2772 12.9277C30.4991 9.79031 31.944 6.02539 33.6118 1.63299H36.7575L27.7662 24.0739L48.82 1.80637L48.8944 1.63299H56.548L55.4086 4.53098H51.0493L40.0518 31.8266H36.4602L46.5661 7.37944ZM48.1325 32C47.5545 31.967 47.0674 31.8266 46.6711 31.5789C46.2748 31.3147 45.9528 30.9845 45.7051 30.5882C45.4739 30.1919 45.317 29.7543 45.2345 29.2754C45.1519 28.78 45.1354 28.2846 45.1849 27.7892C45.251 27.2773 45.3748 26.7902 45.5565 26.3279C45.7546 25.849 46.0188 25.4279 46.3491 25.0646H49.4205C49.0572 25.494 48.7269 25.9976 48.4297 26.5756C48.1325 27.137 47.926 27.6737 47.8105 28.1855C47.6949 28.6809 47.6949 29.102 47.8105 29.4488C47.9426 29.7955 48.2563 29.9607 48.7517 29.9442C49.2801 29.7295 49.7755 29.3992 50.2378 28.9534C50.7167 28.5075 51.1543 27.9874 51.5506 27.3929C51.9634 26.782 52.3432 26.1297 52.69 25.4362C53.0367 24.7426 53.3587 24.0491 53.656 23.3556C53.9532 22.6455 54.2174 21.9685 54.4486 21.3245C54.6963 20.664 54.9275 20.0695 55.1421 19.5411H52.1203L53.3587 16.9899H65.1241L61.6812 26.2288C61.2188 27.3517 60.9877 28.0122 60.9877 28.2103C60.9877 29.135 61.772 29.5974 63.3407 29.5974H67.1056L66.0901 32.0743H63.0187C61.8133 32.0743 60.9959 32.033 60.5666 31.9505C60.1372 31.8514 59.6997 31.6285 59.2538 31.2817C58.4282 30.6542 58.0154 29.8451 58.0154 28.8543C58.0154 28.3259 58.3704 27.2113 59.0804 25.5105L61.384 19.5411H57.6934C57.3961 20.3172 57.0741 21.1594 56.7274 22.0676C56.3806 22.9758 55.9925 23.884 55.5632 24.7922C55.1504 25.7004 54.688 26.5838 54.1761 27.4425C53.6807 28.3011 53.1276 29.0607 52.5166 29.7212C51.9056 30.3817 51.2369 30.9184 50.5103 31.3312C49.7837 31.7441 48.9911 31.967 48.1325 32ZM82.1158 28.0617C81.5213 28.9864 80.836 29.746 80.0599 30.3405C79.3003 30.9184 78.4912 31.356 77.6325 31.6532C76.7904 31.9505 75.9235 32.1238 75.0318 32.1734C74.1401 32.2229 73.2732 32.1734 72.431 32.0248C71.176 31.8101 70.2018 31.3808 69.5083 30.7368C68.8312 30.0763 68.4597 29.1433 68.3936 27.9379C68.3276 26.7159 68.5835 25.1885 69.1615 23.3556C69.7394 21.5226 70.6559 19.3017 71.9109 16.6926L75.1309 16.7174L72.6044 21.8942C73.2154 21.2997 73.9419 20.8621 74.7841 20.5814C75.6262 20.3007 76.4849 20.1768 77.3601 20.2099C78.2353 20.2429 79.0692 20.4328 79.8618 20.7796C80.6709 21.1263 81.3232 21.63 81.8185 22.2905C82.3304 22.951 82.6359 23.7601 82.735 24.7179C82.8341 25.6756 82.6277 26.7902 82.1158 28.0617ZM79.4655 27.17C79.9278 26.1132 80.0599 25.2463 79.8618 24.5692C79.6801 23.8757 79.3086 23.3638 78.7472 23.0336C78.2022 22.7033 77.5335 22.5464 76.7409 22.5629C75.9482 22.5629 75.1804 22.7281 74.4373 23.0583C73.6942 23.3721 73.0337 23.8509 72.4558 24.4949C71.8944 25.1224 71.5641 25.8903 71.465 26.7985C71.3659 27.5581 71.4485 28.1773 71.7127 28.6562C71.9934 29.135 72.3815 29.4901 72.8769 29.7212C73.3722 29.9359 73.9337 30.0432 74.5612 30.0432C75.2052 30.0267 75.8409 29.9029 76.4684 29.6717C77.1124 29.4405 77.7069 29.1185 78.2518 28.7057C78.8132 28.2764 79.2673 27.7645 79.6141 27.17H79.4655ZM97.0763 26.1049C96.7131 26.9801 96.5314 27.6076 96.5314 27.9874C96.5314 28.7965 97.3488 29.2011 98.9836 29.2011H102.674L101.683 31.7523H98.4634C97.1754 31.7523 96.2094 31.6202 95.5654 31.356C94.9214 31.0918 94.4178 30.6212 94.0545 29.9442C93.7903 30.1093 93.5096 30.2909 93.2124 30.4891C92.6179 30.8854 92.1886 31.1578 91.9244 31.3065C91.2473 31.6697 90.3474 31.8514 89.2245 31.8514C88.2007 31.8514 87.4246 31.7936 86.8962 31.678C86.3678 31.5624 85.8889 31.3477 85.4596 31.034C84.4193 30.2579 83.8991 29.1681 83.8991 27.7645C83.8991 26.9719 84.2459 25.6508 84.9394 23.8014L87.6393 16.7422H90.5868L87.6393 24.594C87.1439 25.8985 86.8962 26.7902 86.8962 27.2691C86.8962 28.6066 87.8374 29.2754 89.7199 29.2754C90.2813 29.2754 90.8015 29.1515 91.2804 28.9039C91.7592 28.6562 92.5684 28.103 93.7077 27.2443L97.7946 16.7422H100.668L97.0763 26.1049ZM106.092 31.9505H103.244L108.99 16.9899H111.789L109.659 22.6373L117.437 22.5877L119.691 17.1385H122.514L118.848 26.1792C118.386 27.3021 118.155 27.9626 118.155 28.1608C118.155 29.0855 118.939 29.5479 120.508 29.5479H124.273L123.257 32.0248H120.186C118.981 32.0248 118.163 31.9835 117.734 31.9009C117.305 31.8018 116.867 31.5789 116.421 31.2322C115.595 30.6047 115.183 29.7955 115.183 28.8048C115.183 28.2764 115.538 27.1618 116.248 25.4609L116.545 24.7426H108.866L108.346 26.1792L106.092 31.9505ZM139.184 32.0495H132.323C130.061 32.0495 128.451 31.711 127.493 31.034C126.816 30.5716 126.271 29.9276 125.858 29.102C125.462 28.2599 125.264 27.3847 125.264 26.4765C125.264 25.4362 125.536 24.272 126.081 22.984C126.642 21.696 127.344 20.5897 128.186 19.665C129.095 18.6907 130.135 17.9229 131.307 17.3614C132.496 16.8 133.669 16.5193 134.825 16.5193C136.228 16.5193 137.384 16.9073 138.292 17.6834C139.2 18.4595 139.655 19.4503 139.655 20.6557C139.655 21.5474 139.366 22.4308 138.788 23.306H135.716C136.476 22.3153 136.856 21.5144 136.856 20.9034C136.856 20.375 136.649 19.9374 136.236 19.5906C135.824 19.2274 135.312 19.0457 134.701 19.0457C133.578 19.0457 132.389 19.5494 131.134 20.5566C130.226 21.2832 129.483 22.1749 128.905 23.2317C128.343 24.272 128.063 25.2628 128.063 26.204C128.063 26.815 128.211 27.3929 128.508 27.9379C128.822 28.4663 129.227 28.8626 129.722 29.1268C130.3 29.4405 131.373 29.5974 132.942 29.5974H140.175L139.184 32.0495ZM143.197 31.9752H140.323L146.862 16.9651H149.785L143.197 31.9752ZM150.132 24.3959L154.888 32.1734H151.717L146.763 23.95L155.655 17.0394H160.213L150.132 24.3959ZM172.176 26.1049C171.813 26.9801 171.632 27.6076 171.632 27.9874C171.632 28.7965 172.449 29.2011 174.084 29.2011H177.774L176.784 31.7523H173.564C172.276 31.7523 171.31 31.6202 170.666 31.356C170.022 31.0918 169.518 30.6212 169.155 29.9442C168.89 30.1093 168.61 30.2909 168.313 30.4891C167.718 30.8854 167.289 31.1578 167.025 31.3065C166.347 31.6697 165.448 31.8514 164.325 31.8514C163.301 31.8514 162.525 31.7936 161.996 31.678C161.468 31.5624 160.989 31.3477 160.56 31.034C159.519 30.2579 158.999 29.1681 158.999 27.7645C158.999 26.9719 159.346 25.6508 160.04 23.8014L162.739 16.7422H165.687L162.739 24.594C162.244 25.8985 161.996 26.7902 161.996 27.2691C161.996 28.6066 162.938 29.2754 164.82 29.2754C165.381 29.2754 165.902 29.1515 166.381 28.9039C166.859 28.6562 167.669 28.103 168.808 27.2443L172.895 16.7422H175.768L172.176 26.1049ZM192.14 26.1049C191.777 26.9801 191.596 27.6076 191.596 27.9874C191.596 28.7965 192.413 29.2011 194.048 29.2011H197.738L196.748 31.7523H193.528C192.24 31.7523 191.274 31.6202 190.63 31.356C189.986 31.0918 189.482 30.6212 189.119 29.9442C188.854 30.1093 188.574 30.2909 188.276 30.4891C187.682 30.8854 187.253 31.1578 186.988 31.3065C186.311 31.6697 185.411 31.8514 184.289 31.8514C183.265 31.8514 182.489 31.7936 181.96 31.678C181.432 31.5624 180.953 31.3477 180.524 31.034C179.483 30.2579 178.963 29.1681 178.963 27.7645C178.963 26.9719 179.31 25.6508 180.004 23.8014L182.703 16.7422H185.651L182.703 24.594C182.208 25.8985 181.96 26.7902 181.96 27.2691C181.96 28.6066 182.902 29.2754 184.784 29.2754C185.345 29.2754 185.866 29.1515 186.344 28.9039C186.823 28.6562 187.632 28.103 188.772 27.2443L192.859 16.7422H195.732L192.14 26.1049ZM195.509 8.98944C195.162 10.2279 194.601 11.2269 193.825 11.9865C193.065 12.7296 192 13.1011 190.63 13.1011C188.813 13.1011 187.674 12.9442 187.211 12.6305C187.013 12.4984 186.832 12.3333 186.666 12.1351C186.518 11.9205 186.386 11.6975 186.27 11.4664C186.171 11.2187 186.097 10.9792 186.047 10.748C185.998 10.5004 185.973 10.2774 185.973 10.0793C185.973 9.78205 186.055 9.41877 186.221 8.98944L188.004 8.81605C187.987 8.89862 187.979 8.97292 187.979 9.03897C187.979 9.08851 187.979 9.12979 187.979 9.16282C187.979 9.67472 188.194 10.0875 188.623 10.4013C189.069 10.6985 189.672 10.8471 190.431 10.8471C191.984 10.8471 193.065 10.1701 193.676 8.81605L195.509 8.98944Z" fill="#FF0000"/>
<rect x="120" y="36" width="76" height="18" rx="9" fill="#FF0000"/>
<path d="M131.72 49.16C130.909 49.16 130.205 48.9947 129.608 48.664C129.011 48.3333 128.547 47.864 128.216 47.256C127.885 46.6373 127.72 45.912 127.72 45.08C127.72 44.248 127.885 43.528 128.216 42.92C128.547 42.312 129.011 41.8427 129.608 41.512C130.205 41.1813 130.909 41.016 131.72 41.016C132.531 41.016 133.235 41.1813 133.832 41.512C134.429 41.8427 134.893 42.312 135.224 42.92C135.555 43.528 135.72 44.248 135.72 45.08C135.72 45.912 135.555 46.6373 135.224 47.256C134.893 47.864 134.429 48.3333 133.832 48.664C133.235 48.9947 132.531 49.16 131.72 49.16ZM131.72 47.64C132.317 47.64 132.797 47.4267 133.16 47C133.523 46.5627 133.704 45.9227 133.704 45.08C133.704 44.2267 133.523 43.592 133.16 43.176C132.797 42.7493 132.317 42.536 131.72 42.536C131.123 42.536 130.643 42.7493 130.28 43.176C129.917 43.592 129.736 44.2267 129.736 45.08C129.736 45.9227 129.917 46.5627 130.28 47C130.643 47.4267 131.123 47.64 131.72 47.64ZM138.582 49.128C137.91 49.128 137.574 48.7867 137.574 48.104V42.056C137.574 41.384 137.91 41.048 138.582 41.048C139.243 41.048 139.574 41.384 139.574 42.056V44.2H143.03V42.056C143.03 41.384 143.36 41.048 144.022 41.048C144.694 41.048 145.03 41.384 145.03 42.056V48.104C145.03 48.7867 144.694 49.128 144.022 49.128C143.36 49.128 143.03 48.7867 143.03 48.104V45.768H139.574V48.104C139.574 48.7867 139.243 49.128 138.582 49.128ZM153.58 49.128C152.919 49.128 152.588 48.7867 152.588 48.104V42.744H150.124V43.656C150.124 45.1387 149.937 46.312 149.564 47.176C149.201 48.04 148.604 48.648 147.772 49C147.484 49.1173 147.233 49.1333 147.02 49.048C146.807 48.9627 146.647 48.824 146.54 48.632C146.444 48.4293 146.423 48.216 146.476 47.992C146.529 47.768 146.689 47.5813 146.956 47.432C147.489 47.1227 147.841 46.664 148.012 46.056C148.193 45.448 148.284 44.6267 148.284 43.592V42.296C148.284 41.5493 148.657 41.176 149.404 41.176H153.468C154.215 41.176 154.588 41.5493 154.588 42.296V48.104C154.588 48.7867 154.252 49.128 153.58 49.128ZM159.447 49.16C158.881 49.16 158.375 49.0533 157.927 48.84C157.489 48.616 157.143 48.3173 156.887 47.944C156.641 47.5707 156.519 47.1493 156.519 46.68C156.519 46.104 156.668 45.6507 156.967 45.32C157.265 44.9787 157.751 44.7333 158.423 44.584C159.095 44.4347 159.996 44.36 161.127 44.36H161.687V44.024C161.687 43.4907 161.569 43.1067 161.335 42.872C161.1 42.6373 160.705 42.52 160.151 42.52C159.841 42.52 159.505 42.5573 159.143 42.632C158.791 42.7067 158.417 42.8347 158.023 43.016C157.767 43.1333 157.553 43.1493 157.383 43.064C157.212 42.968 157.095 42.824 157.031 42.632C156.977 42.4293 156.988 42.2267 157.063 42.024C157.148 41.8213 157.313 41.672 157.559 41.576C158.049 41.3733 158.519 41.2293 158.967 41.144C159.425 41.0587 159.841 41.016 160.215 41.016C161.356 41.016 162.204 41.2827 162.759 41.816C163.313 42.3387 163.591 43.1547 163.591 44.264V48.104C163.591 48.7867 163.281 49.128 162.663 49.128C162.033 49.128 161.719 48.7867 161.719 48.104V47.752C161.537 48.1893 161.249 48.536 160.855 48.792C160.46 49.0373 159.991 49.16 159.447 49.16ZM159.863 47.784C160.385 47.784 160.817 47.6027 161.159 47.24C161.511 46.8773 161.687 46.4187 161.687 45.864V45.512H161.143C160.14 45.512 159.441 45.592 159.047 45.752C158.663 45.9013 158.471 46.1787 158.471 46.584C158.471 46.936 158.593 47.224 158.839 47.448C159.084 47.672 159.425 47.784 159.863 47.784ZM166.752 49.128C166.133 49.128 165.824 48.7707 165.824 48.056V42.008C165.824 41.368 166.128 41.048 166.736 41.048C167.333 41.048 167.632 41.368 167.632 42.008V46.392L171.168 41.688C171.285 41.5387 171.429 41.3947 171.6 41.256C171.77 41.1173 172.005 41.048 172.304 41.048C172.912 41.048 173.216 41.4 173.216 42.104V48.168C173.216 48.808 172.917 49.128 172.32 49.128C171.712 49.128 171.408 48.808 171.408 48.168V43.784L167.872 48.488C167.765 48.6373 167.626 48.7813 167.456 48.92C167.296 49.0587 167.061 49.128 166.752 49.128ZM169.52 40.184C168.858 40.184 168.282 40.0347 167.792 39.736C167.301 39.4267 166.954 38.9947 166.752 38.44C166.602 38.0347 166.704 37.7733 167.056 37.656C167.365 37.5493 167.616 37.6827 167.808 38.056C168.16 38.7387 168.73 39.08 169.52 39.08C170.309 39.08 170.88 38.7387 171.232 38.056C171.424 37.6827 171.674 37.5493 171.984 37.656C172.144 37.7093 172.25 37.8053 172.304 37.944C172.368 38.072 172.352 38.2373 172.256 38.44C171.989 38.9947 171.632 39.4267 171.184 39.736C170.736 40.0347 170.181 40.184 169.52 40.184ZM176.488 49.128C175.816 49.128 175.48 48.7867 175.48 48.104V42.056C175.48 41.384 175.816 41.048 176.488 41.048C177.149 41.048 177.48 41.384 177.48 42.056V44.2H180.936V42.056C180.936 41.384 181.266 41.048 181.928 41.048C182.6 41.048 182.936 41.384 182.936 42.056V48.104C182.936 48.7867 182.6 49.128 181.928 49.128C181.266 49.128 180.936 48.7867 180.936 48.104V45.768H177.48V48.104C177.48 48.7867 177.149 49.128 176.488 49.128Z" fill="white"/>
<circle cx="189" cy="45" r="3" fill="#FFA900"/>
</svg>
