<svg width="333" height="52" viewBox="0 0 333 52" fill="none" xmlns="http://www.w3.org/2000/svg">
<path d="M2.432 21.198C1.78667 21.198 1.288 21.022 0.936 20.67C0.584 20.318 0.408 19.8047 0.408 19.13V7.58C0.408 6.18667 1.112 5.49 2.52 5.49H12.618C14.026 5.49 14.73 6.18667 14.73 7.58V19.13C14.73 19.8047 14.554 20.318 14.202 20.67C13.8647 21.022 13.366 21.198 12.706 21.198C12.0607 21.198 11.562 21.022 11.21 20.67C10.858 20.318 10.682 19.8047 10.682 19.13V8.79H4.456V19.13C4.456 19.8047 4.28 20.318 3.928 20.67C3.59067 21.022 3.092 21.198 2.432 21.198ZM19.3125 21.198C18.7699 21.198 18.3372 21.0293 18.0145 20.692C17.7065 20.34 17.5525 19.8413 17.5525 19.196V7.184C17.5525 5.92267 18.1832 5.292 19.4445 5.292C20.0459 5.292 20.5079 5.46067 20.8305 5.798C21.1532 6.12067 21.3145 6.58267 21.3145 7.184V14.4L27.6725 6.436C27.9952 6.02533 28.2959 5.732 28.5745 5.556C28.8679 5.38 29.2639 5.292 29.7625 5.292C30.2612 5.292 30.6572 5.46067 30.9505 5.798C31.2439 6.12067 31.3905 6.55333 31.3905 7.096V19.284C31.3905 20.56 30.7672 21.198 29.5205 21.198C28.2739 21.198 27.6505 20.56 27.6505 19.284V12.068L21.2925 20.054C20.9552 20.4647 20.6545 20.758 20.3905 20.934C20.1265 21.11 19.7672 21.198 19.3125 21.198ZM39.9004 21.198C39.2551 21.198 38.7564 21.022 38.4044 20.67C38.0524 20.318 37.8764 19.812 37.8764 19.152V8.79H34.4224C33.3077 8.79 32.7504 8.24 32.7504 7.14C32.7504 6.04 33.3077 5.49 34.4224 5.49H45.3784C46.4931 5.49 47.0504 6.04 47.0504 7.14C47.0504 8.24 46.4931 8.79 45.3784 8.79H41.9244V19.152C41.9244 19.812 41.7484 20.318 41.3964 20.67C41.0591 21.022 40.5604 21.198 39.9004 21.198ZM47.175 21.198C46.4857 21.198 45.9797 20.9633 45.657 20.494C45.3343 20.0247 45.3343 19.438 45.657 18.734L51.135 6.942C51.399 6.37 51.7217 5.952 52.103 5.688C52.4843 5.424 52.9317 5.292 53.445 5.292C53.9437 5.292 54.3837 5.424 54.765 5.688C55.1463 5.952 55.469 6.37 55.733 6.942L61.211 18.734C61.5483 19.4527 61.563 20.0467 61.255 20.516C60.947 20.9707 60.463 21.198 59.803 21.198C59.2163 21.198 58.7617 21.066 58.439 20.802C58.131 20.538 57.8523 20.1127 57.603 19.526L56.899 17.854H49.969L49.265 19.526C49.001 20.1127 48.7297 20.538 48.451 20.802C48.1723 21.066 47.747 21.198 47.175 21.198ZM53.401 9.714L51.289 14.752H55.557L53.445 9.714H53.401ZM64.9883 21.198C64.4456 21.198 64.013 21.0293 63.6903 20.692C63.3823 20.34 63.2283 19.8413 63.2283 19.196V7.184C63.2283 5.92267 63.859 5.292 65.1203 5.292C65.7216 5.292 66.1836 5.46067 66.5063 5.798C66.829 6.12067 66.9903 6.58267 66.9903 7.184V14.4L73.3483 6.436C73.671 6.02533 73.9716 5.732 74.2503 5.556C74.5436 5.38 74.9396 5.292 75.4383 5.292C75.937 5.292 76.333 5.46067 76.6263 5.798C76.9196 6.12067 77.0663 6.55333 77.0663 7.096V19.284C77.0663 20.56 76.443 21.198 75.1963 21.198C73.9496 21.198 73.3263 20.56 73.3263 19.284V12.068L66.9683 20.054C66.631 20.4647 66.3303 20.758 66.0663 20.934C65.8023 21.11 65.443 21.198 64.9883 21.198ZM70.1583 4.28C68.985 4.28 68.0316 4.06 67.2983 3.62C66.5796 3.16533 66.0663 2.586 65.7583 1.882C65.6116 1.53 65.6043 1.23667 65.7363 1.002C65.8683 0.752666 66.081 0.583999 66.3743 0.495999C66.6823 0.393332 66.9316 0.407998 67.1223 0.539999C67.3276 0.657332 67.5403 0.869999 67.7603 1.178C68.259 1.91133 69.0583 2.278 70.1583 2.278C71.2583 2.278 72.0576 1.91133 72.5563 1.178C72.7763 0.869999 72.9816 0.657332 73.1723 0.539999C73.3776 0.407998 73.6343 0.393332 73.9423 0.495999C74.2356 0.583999 74.4483 0.745332 74.5803 0.979999C74.7123 1.21467 74.6976 1.508 74.5363 1.86C74.2136 2.57867 73.693 3.16533 72.9743 3.62C72.2556 4.06 71.317 4.28 70.1583 4.28ZM85.5762 21.198C84.9309 21.198 84.4322 21.022 84.0802 20.67C83.7282 20.318 83.5522 19.812 83.5522 19.152V8.79H80.0982C78.9835 8.79 78.4262 8.24 78.4262 7.14C78.4262 6.04 78.9835 5.49 80.0982 5.49H91.0542C92.1689 5.49 92.7262 6.04 92.7262 7.14C92.7262 8.24 92.1689 8.79 91.0542 8.79H87.6002V19.152C87.6002 19.812 87.4242 20.318 87.0722 20.67C86.7349 21.022 86.2362 21.198 85.5762 21.198ZM96.1704 21C94.7624 21 94.0584 20.3033 94.0584 18.91V7.58C94.0584 6.18667 94.7624 5.49 96.1704 5.49H103.628C104.684 5.49 105.212 6.00333 105.212 7.03C105.212 8.086 104.684 8.614 103.628 8.614H97.9304V11.562H103.144C104.2 11.562 104.728 12.0827 104.728 13.124C104.728 14.1653 104.2 14.686 103.144 14.686H97.9304V17.876H103.628C104.684 17.876 105.212 18.3967 105.212 19.438C105.212 20.4793 104.684 21 103.628 21H96.1704ZM115.447 21.242C113.731 21.242 112.257 20.912 111.025 20.252C109.793 19.592 108.847 18.6607 108.187 17.458C107.542 16.2553 107.219 14.8473 107.219 13.234C107.219 11.6207 107.542 10.22 108.187 9.032C108.847 7.82933 109.793 6.898 111.025 6.238C112.257 5.578 113.731 5.248 115.447 5.248C116.122 5.248 116.818 5.32867 117.537 5.49C118.27 5.63667 118.916 5.864 119.473 6.172C119.884 6.392 120.17 6.67067 120.331 7.008C120.492 7.34533 120.551 7.69 120.507 8.042C120.463 8.394 120.331 8.70933 120.111 8.988C119.906 9.26667 119.642 9.45733 119.319 9.56C118.996 9.648 118.644 9.59667 118.263 9.406C117.398 8.98067 116.51 8.768 115.601 8.768C114.237 8.768 113.21 9.15667 112.521 9.934C111.832 10.6967 111.487 11.7967 111.487 13.234C111.487 14.686 111.832 15.8007 112.521 16.578C113.21 17.3407 114.237 17.722 115.601 17.722C115.982 17.722 116.393 17.678 116.833 17.59C117.273 17.4873 117.706 17.3333 118.131 17.128C118.571 16.9373 118.96 16.886 119.297 16.974C119.649 17.062 119.935 17.238 120.155 17.502C120.375 17.766 120.507 18.074 120.551 18.426C120.61 18.7633 120.566 19.1007 120.419 19.438C120.272 19.7753 120.001 20.0467 119.605 20.252C119.092 20.56 118.454 20.802 117.691 20.978C116.943 21.154 116.195 21.242 115.447 21.242ZM124.874 21C123.466 21 122.762 20.3033 122.762 18.91V7.36C122.762 6.68533 122.938 6.172 123.29 5.82C123.642 5.468 124.14 5.292 124.786 5.292C125.431 5.292 125.93 5.468 126.282 5.82C126.634 6.172 126.81 6.68533 126.81 7.36V11.518H130.462C132.148 11.518 133.476 11.9287 134.444 12.75C135.426 13.5713 135.918 14.7373 135.918 16.248C135.918 17.7733 135.426 18.9467 134.444 19.768C133.476 20.5893 132.148 21 130.462 21H124.874ZM126.81 17.942H129.912C130.66 17.942 131.202 17.8027 131.54 17.524C131.892 17.2453 132.068 16.82 132.068 16.248C132.068 15.6907 131.892 15.2727 131.54 14.994C131.202 14.7153 130.66 14.576 129.912 14.576H126.81V17.942ZM146.227 21.198C145.582 21.198 145.083 21.022 144.731 20.67C144.379 20.318 144.203 19.812 144.203 19.152V7.536C144.203 6.876 144.379 6.37 144.731 6.018C145.083 5.666 145.589 5.49 146.249 5.49H151.661C153.421 5.49 154.778 5.94467 155.731 6.854C156.699 7.74867 157.183 8.988 157.183 10.572C157.183 12.156 156.699 13.4027 155.731 14.312C154.778 15.2067 153.421 15.654 151.661 15.654H148.251V19.152C148.251 19.812 148.075 20.318 147.723 20.67C147.386 21.022 146.887 21.198 146.227 21.198ZM148.251 12.552H150.957C152.541 12.552 153.333 11.892 153.333 10.572C153.333 9.252 152.541 8.592 150.957 8.592H148.251V12.552ZM158.142 21.198C157.452 21.198 156.946 20.9633 156.624 20.494C156.301 20.0247 156.301 19.438 156.624 18.734L162.102 6.942C162.366 6.37 162.688 5.952 163.07 5.688C163.451 5.424 163.898 5.292 164.412 5.292C164.91 5.292 165.35 5.424 165.732 5.688C166.113 5.952 166.436 6.37 166.7 6.942L172.178 18.734C172.515 19.4527 172.53 20.0467 172.222 20.516C171.914 20.9707 171.43 21.198 170.77 21.198C170.183 21.198 169.728 21.066 169.406 20.802C169.098 20.538 168.819 20.1127 168.57 19.526L167.866 17.854H160.936L160.232 19.526C159.968 20.1127 159.696 20.538 159.418 20.802C159.139 21.066 158.714 21.198 158.142 21.198ZM164.368 9.714L162.256 14.752H166.524L164.412 9.714H164.368ZM179.255 21.242C178.302 21.242 177.414 21.154 176.593 20.978C175.786 20.802 175.046 20.5453 174.371 20.208C173.96 20.0027 173.667 19.746 173.491 19.438C173.33 19.13 173.264 18.8147 173.293 18.492C173.322 18.1547 173.44 17.8613 173.645 17.612C173.85 17.3627 174.114 17.2013 174.437 17.128C174.774 17.04 175.163 17.084 175.603 17.26C176.087 17.4947 176.608 17.6633 177.165 17.766C177.737 17.8687 178.309 17.92 178.881 17.92C179.878 17.92 180.612 17.7807 181.081 17.502C181.55 17.2087 181.785 16.7613 181.785 16.16C181.785 15.6613 181.609 15.2947 181.257 15.06C180.92 14.8107 180.377 14.686 179.629 14.686H177.319C176.234 14.686 175.691 14.1653 175.691 13.124C175.691 12.0973 176.234 11.584 177.319 11.584H179.211C179.959 11.584 180.502 11.4667 180.839 11.232C181.176 10.9973 181.345 10.6307 181.345 10.132C181.345 9.67733 181.154 9.30333 180.773 9.01C180.406 8.71667 179.798 8.57 178.947 8.57C178.463 8.57 177.964 8.62133 177.451 8.724C176.938 8.812 176.461 8.95133 176.021 9.142C175.581 9.33267 175.185 9.384 174.833 9.296C174.496 9.208 174.224 9.03933 174.019 8.79C173.814 8.54067 173.689 8.25467 173.645 7.932C173.616 7.59467 173.682 7.272 173.843 6.964C174.019 6.656 174.305 6.414 174.701 6.238C176.065 5.578 177.649 5.248 179.453 5.248C181.418 5.248 182.885 5.65133 183.853 6.458C184.821 7.26467 185.305 8.27667 185.305 9.494C185.305 10.3007 185.1 11.0047 184.689 11.606C184.293 12.2073 183.736 12.6547 183.017 12.948C183.882 13.212 184.542 13.6593 184.997 14.29C185.466 14.906 185.701 15.676 185.701 16.6C185.701 17.964 185.173 19.0787 184.117 19.944C183.061 20.8093 181.44 21.242 179.255 21.242ZM190.034 21.198C189.388 21.198 188.89 21.022 188.538 20.67C188.186 20.318 188.01 19.8047 188.01 19.13V7.36C188.01 6.68533 188.186 6.172 188.538 5.82C188.89 5.468 189.388 5.292 190.034 5.292C190.679 5.292 191.178 5.468 191.53 5.82C191.882 6.172 192.058 6.68533 192.058 7.36V11.474H198.46V7.36C198.46 6.68533 198.636 6.172 198.988 5.82C199.34 5.468 199.838 5.292 200.484 5.292C201.129 5.292 201.62 5.468 201.958 5.82C202.31 6.172 202.486 6.68533 202.486 7.36V19.13C202.486 19.8047 202.31 20.318 201.958 20.67C201.62 21.022 201.129 21.198 200.484 21.198C199.824 21.198 199.318 21.022 198.966 20.67C198.628 20.318 198.46 19.8047 198.46 19.13V14.796H192.058V19.13C192.058 19.8047 191.882 20.318 191.53 20.67C191.192 21.022 190.694 21.198 190.034 21.198ZM212.784 21.242C211.215 21.242 209.836 20.912 208.648 20.252C207.475 19.5773 206.558 18.6387 205.898 17.436C205.238 16.2333 204.908 14.8327 204.908 13.234C204.908 11.6207 205.231 10.22 205.876 9.032C206.536 7.82933 207.46 6.898 208.648 6.238C209.836 5.578 211.215 5.248 212.784 5.248C214.354 5.248 215.725 5.578 216.898 6.238C218.086 6.898 219.01 7.82933 219.67 9.032C220.33 10.22 220.66 11.6207 220.66 13.234C220.66 14.8327 220.33 16.2333 219.67 17.436C219.01 18.6387 218.086 19.5773 216.898 20.252C215.725 20.912 214.354 21.242 212.784 21.242ZM212.784 17.854C213.928 17.854 214.823 17.4507 215.468 16.644C216.128 15.8227 216.458 14.686 216.458 13.234C216.458 11.782 216.136 10.6527 215.49 9.846C214.845 9.03933 213.943 8.636 212.784 8.636C211.626 8.636 210.724 9.03933 210.078 9.846C209.433 10.6527 209.11 11.782 209.11 13.234C209.11 14.686 209.433 15.8227 210.078 16.644C210.724 17.4507 211.626 17.854 212.784 17.854ZM230.531 21.242C228.961 21.242 227.583 20.912 226.395 20.252C225.221 19.5773 224.305 18.6387 223.645 17.436C222.985 16.2333 222.655 14.8327 222.655 13.234C222.655 11.6207 222.977 10.22 223.623 9.032C224.283 7.82933 225.207 6.898 226.395 6.238C227.583 5.578 228.961 5.248 230.531 5.248C232.1 5.248 233.471 5.578 234.645 6.238C235.833 6.898 236.757 7.82933 237.417 9.032C238.077 10.22 238.407 11.6207 238.407 13.234C238.407 14.8327 238.077 16.2333 237.417 17.436C236.757 18.6387 235.833 19.5773 234.645 20.252C233.471 20.912 232.1 21.242 230.531 21.242ZM230.531 17.854C231.675 17.854 232.569 17.4507 233.215 16.644C233.875 15.8227 234.205 14.686 234.205 13.234C234.205 11.782 233.882 10.6527 233.237 9.846C232.591 9.03933 231.689 8.636 230.531 8.636C229.372 8.636 228.47 9.03933 227.825 9.846C227.179 10.6527 226.857 11.782 226.857 13.234C226.857 14.686 227.179 15.8227 227.825 16.644C228.47 17.4507 229.372 17.854 230.531 17.854ZM242.909 21C241.501 21 240.797 20.3033 240.797 18.91V7.58C240.797 6.18667 241.501 5.49 242.909 5.49H250.983C252.039 5.49 252.567 6.00333 252.567 7.03C252.567 8.086 252.039 8.614 250.983 8.614H244.669V11.518H248.497C250.183 11.518 251.511 11.9287 252.479 12.75C253.461 13.5713 253.953 14.7373 253.953 16.248C253.953 17.7733 253.461 18.9467 252.479 19.768C251.511 20.5893 250.183 21 248.497 21H242.909ZM244.669 17.942H247.947C248.695 17.942 249.237 17.8027 249.575 17.524C249.927 17.2453 250.103 16.82 250.103 16.248C250.103 15.6907 249.927 15.2727 249.575 14.994C249.237 14.7153 248.695 14.576 247.947 14.576H244.669V17.942ZM257.967 21.198C257.322 21.198 256.823 21.022 256.471 20.67C256.119 20.318 255.943 19.812 255.943 19.152V7.536C255.943 6.876 256.119 6.37 256.471 6.018C256.823 5.666 257.329 5.49 257.989 5.49H263.401C265.161 5.49 266.518 5.94467 267.471 6.854C268.439 7.74867 268.923 8.988 268.923 10.572C268.923 12.156 268.439 13.4027 267.471 14.312C266.518 15.2067 265.161 15.654 263.401 15.654H259.991V19.152C259.991 19.812 259.815 20.318 259.463 20.67C259.126 21.022 258.627 21.198 257.967 21.198ZM259.991 12.552H262.697C264.281 12.552 265.073 11.892 265.073 10.572C265.073 9.252 264.281 8.592 262.697 8.592H259.991V12.552ZM269.882 21.198C269.193 21.198 268.687 20.9633 268.364 20.494C268.041 20.0247 268.041 19.438 268.364 18.734L273.842 6.942C274.106 6.37 274.429 5.952 274.81 5.688C275.191 5.424 275.639 5.292 276.152 5.292C276.651 5.292 277.091 5.424 277.472 5.688C277.853 5.952 278.176 6.37 278.44 6.942L283.918 18.734C284.255 19.4527 284.27 20.0467 283.962 20.516C283.654 20.9707 283.17 21.198 282.51 21.198C281.923 21.198 281.469 21.066 281.146 20.802C280.838 20.538 280.559 20.1127 280.31 19.526L279.606 17.854H272.676L271.972 19.526C271.708 20.1127 271.437 20.538 271.158 20.802C270.879 21.066 270.454 21.198 269.882 21.198ZM276.108 9.714L273.996 14.752H278.264L276.152 9.714H276.108ZM290.995 21.242C290.042 21.242 289.155 21.154 288.333 20.978C287.527 20.802 286.786 20.5453 286.111 20.208C285.701 20.0027 285.407 19.746 285.231 19.438C285.07 19.13 285.004 18.8147 285.033 18.492C285.063 18.1547 285.18 17.8613 285.385 17.612C285.591 17.3627 285.855 17.2013 286.177 17.128C286.515 17.04 286.903 17.084 287.343 17.26C287.827 17.4947 288.348 17.6633 288.905 17.766C289.477 17.8687 290.049 17.92 290.621 17.92C291.619 17.92 292.352 17.7807 292.821 17.502C293.291 17.2087 293.525 16.7613 293.525 16.16C293.525 15.6613 293.349 15.2947 292.997 15.06C292.66 14.8107 292.117 14.686 291.369 14.686H289.059C287.974 14.686 287.431 14.1653 287.431 13.124C287.431 12.0973 287.974 11.584 289.059 11.584H290.951C291.699 11.584 292.242 11.4667 292.579 11.232C292.917 10.9973 293.085 10.6307 293.085 10.132C293.085 9.67733 292.895 9.30333 292.513 9.01C292.147 8.71667 291.538 8.57 290.687 8.57C290.203 8.57 289.705 8.62133 289.191 8.724C288.678 8.812 288.201 8.95133 287.761 9.142C287.321 9.33267 286.925 9.384 286.573 9.296C286.236 9.208 285.965 9.03933 285.759 8.79C285.554 8.54067 285.429 8.25467 285.385 7.932C285.356 7.59467 285.422 7.272 285.583 6.964C285.759 6.656 286.045 6.414 286.441 6.238C287.805 5.578 289.389 5.248 291.193 5.248C293.159 5.248 294.625 5.65133 295.593 6.458C296.561 7.26467 297.045 8.27667 297.045 9.494C297.045 10.3007 296.84 11.0047 296.429 11.606C296.033 12.2073 295.476 12.6547 294.757 12.948C295.623 13.212 296.283 13.6593 296.737 14.29C297.207 14.906 297.441 15.676 297.441 16.6C297.441 17.964 296.913 19.0787 295.857 19.944C294.801 20.8093 293.181 21.242 290.995 21.242ZM301.774 21.198C301.128 21.198 300.63 21.022 300.278 20.67C299.926 20.318 299.75 19.8047 299.75 19.13V7.36C299.75 6.68533 299.926 6.172 300.278 5.82C300.63 5.468 301.128 5.292 301.774 5.292C302.419 5.292 302.918 5.468 303.27 5.82C303.622 6.172 303.798 6.68533 303.798 7.36V11.474H310.2V7.36C310.2 6.68533 310.376 6.172 310.728 5.82C311.08 5.468 311.578 5.292 312.224 5.292C312.869 5.292 313.36 5.468 313.698 5.82C314.05 6.172 314.226 6.68533 314.226 7.36V19.13C314.226 19.8047 314.05 20.318 313.698 20.67C313.36 21.022 312.869 21.198 312.224 21.198C311.564 21.198 311.058 21.022 310.706 20.67C310.368 20.318 310.2 19.8047 310.2 19.13V14.796H303.798V19.13C303.798 19.8047 303.622 20.318 303.27 20.67C302.932 21.022 302.434 21.198 301.774 21.198ZM324.525 21.242C322.955 21.242 321.577 20.912 320.389 20.252C319.215 19.5773 318.299 18.6387 317.639 17.436C316.979 16.2333 316.649 14.8327 316.649 13.234C316.649 11.6207 316.971 10.22 317.617 9.032C318.277 7.82933 319.201 6.898 320.389 6.238C321.577 5.578 322.955 5.248 324.525 5.248C326.094 5.248 327.465 5.578 328.639 6.238C329.827 6.898 330.751 7.82933 331.411 9.032C332.071 10.22 332.401 11.6207 332.401 13.234C332.401 14.8327 332.071 16.2333 331.411 17.436C330.751 18.6387 329.827 19.5773 328.639 20.252C327.465 20.912 326.094 21.242 324.525 21.242ZM324.525 17.854C325.669 17.854 326.563 17.4507 327.209 16.644C327.869 15.8227 328.199 14.686 328.199 13.234C328.199 11.782 327.876 10.6527 327.231 9.846C326.585 9.03933 325.683 8.636 324.525 8.636C323.366 8.636 322.464 9.03933 321.819 9.846C321.173 10.6527 320.851 11.782 320.851 13.234C320.851 14.686 321.173 15.8227 321.819 16.644C322.464 17.4507 323.366 17.854 324.525 17.854ZM2.168 47.198C1.62533 47.198 1.19267 47.0293 0.87 46.692C0.562 46.34 0.408 45.8413 0.408 45.196V33.184C0.408 31.9227 1.03867 31.292 2.3 31.292C2.90133 31.292 3.36333 31.4607 3.686 31.798C4.00867 32.1207 4.17 32.5827 4.17 33.184V40.4L10.528 32.436C10.8507 32.0253 11.1513 31.732 11.43 31.556C11.7233 31.38 12.1193 31.292 12.618 31.292C13.1167 31.292 13.5127 31.4607 13.806 31.798C14.0993 32.1207 14.246 32.5533 14.246 33.096V45.284C14.246 46.56 13.6227 47.198 12.376 47.198C11.1293 47.198 10.506 46.56 10.506 45.284V38.068L4.148 46.054C3.81067 46.4647 3.51 46.758 3.246 46.934C2.982 47.11 2.62267 47.198 2.168 47.198ZM25.3988 47.198C24.7535 47.198 24.2548 47.022 23.9028 46.67C23.5508 46.318 23.3748 45.812 23.3748 45.152V33.338C23.3748 32.678 23.5508 32.172 23.9028 31.82C24.2548 31.468 24.7535 31.292 25.3988 31.292C26.0441 31.292 26.5428 31.468 26.8948 31.82C27.2468 32.172 27.4228 32.678 27.4228 33.338V37.694H28.9628L32.1528 32.326C32.4168 31.8713 32.7395 31.5707 33.1208 31.424C33.5168 31.2627 33.9055 31.226 34.2868 31.314C34.6681 31.402 34.9908 31.5853 35.2548 31.864C35.5188 32.128 35.6728 32.4653 35.7168 32.876C35.7608 33.272 35.6361 33.7047 35.3428 34.174L32.5928 38.486C33.5901 39.0433 34.4115 39.9893 35.0568 41.324L36.5308 44.338C36.7948 44.8807 36.8755 45.3573 36.7728 45.768C36.6848 46.1787 36.4795 46.5087 36.1568 46.758C35.8488 47.0073 35.4821 47.154 35.0568 47.198C34.6461 47.242 34.2501 47.1613 33.8688 46.956C33.4875 46.7507 33.1868 46.4133 32.9668 45.944L31.4708 42.644C31.1921 42.0427 30.8475 41.6173 30.4368 41.368C30.0261 41.1187 29.4981 40.994 28.8528 40.994H27.4228V45.152C27.4228 45.812 27.2468 46.318 26.8948 46.67C26.5575 47.022 26.0588 47.198 25.3988 47.198ZM46.1302 47.242C44.5609 47.242 43.1822 46.912 41.9942 46.252C40.8209 45.5773 39.9042 44.6387 39.2442 43.436C38.5842 42.2333 38.2542 40.8327 38.2542 39.234C38.2542 37.6207 38.5769 36.22 39.2222 35.032C39.8822 33.8293 40.8062 32.898 41.9942 32.238C43.1822 31.578 44.5609 31.248 46.1302 31.248C47.6995 31.248 49.0709 31.578 50.2442 32.238C51.4322 32.898 52.3562 33.8293 53.0162 35.032C53.6762 36.22 54.0062 37.6207 54.0062 39.234C54.0062 40.8327 53.6762 42.2333 53.0162 43.436C52.3562 44.6387 51.4322 45.5773 50.2442 46.252C49.0709 46.912 47.6995 47.242 46.1302 47.242ZM46.1302 43.854C47.2742 43.854 48.1689 43.4507 48.8142 42.644C49.4742 41.8227 49.8042 40.686 49.8042 39.234C49.8042 37.782 49.4815 36.6527 48.8362 35.846C48.1909 35.0393 47.2889 34.636 46.1302 34.636C44.9715 34.636 44.0695 35.0393 43.4242 35.846C42.7789 36.6527 42.4562 37.782 42.4562 39.234C42.4562 40.686 42.7789 41.8227 43.4242 42.644C44.0695 43.4507 44.9715 43.854 46.1302 43.854ZM58.4203 47.198C57.7749 47.198 57.2763 47.022 56.9243 46.67C56.5723 46.318 56.3963 45.8047 56.3963 45.13V33.58C56.3963 32.1867 57.1003 31.49 58.5083 31.49H68.6063C70.0143 31.49 70.7183 32.1867 70.7183 33.58V45.13C70.7183 45.8047 70.5423 46.318 70.1903 46.67C69.8529 47.022 69.3543 47.198 68.6943 47.198C68.0489 47.198 67.5503 47.022 67.1983 46.67C66.8463 46.318 66.6703 45.8047 66.6703 45.13V34.79H60.4443V45.13C60.4443 45.8047 60.2683 46.318 59.9163 46.67C59.5789 47.022 59.0803 47.198 58.4203 47.198ZM75.3008 47.198C74.7581 47.198 74.3255 47.0293 74.0028 46.692C73.6948 46.34 73.5408 45.8413 73.5408 45.196V33.184C73.5408 31.9227 74.1715 31.292 75.4328 31.292C76.0341 31.292 76.4961 31.4607 76.8188 31.798C77.1415 32.1207 77.3028 32.5827 77.3028 33.184V40.4L83.6608 32.436C83.9835 32.0253 84.2841 31.732 84.5628 31.556C84.8561 31.38 85.2521 31.292 85.7508 31.292C86.2495 31.292 86.6455 31.4607 86.9388 31.798C87.2321 32.1207 87.3788 32.5533 87.3788 33.096V45.284C87.3788 46.56 86.7555 47.198 85.5088 47.198C84.2621 47.198 83.6388 46.56 83.6388 45.284V38.068L77.2808 46.054C76.9435 46.4647 76.6428 46.758 76.3788 46.934C76.1148 47.11 75.7555 47.198 75.3008 47.198ZM95.8887 47.198C95.2434 47.198 94.7447 47.022 94.3927 46.67C94.0407 46.318 93.8647 45.812 93.8647 45.152V34.79H90.4107C89.296 34.79 88.7387 34.24 88.7387 33.14C88.7387 32.04 89.296 31.49 90.4107 31.49H101.367C102.481 31.49 103.039 32.04 103.039 33.14C103.039 34.24 102.481 34.79 101.367 34.79H97.9127V45.152C97.9127 45.812 97.7367 46.318 97.3847 46.67C97.0474 47.022 96.5487 47.198 95.8887 47.198ZM106.483 47C105.075 47 104.371 46.3033 104.371 44.91V33.58C104.371 32.1867 105.075 31.49 106.483 31.49H113.941C114.997 31.49 115.525 32.0033 115.525 33.03C115.525 34.086 114.997 34.614 113.941 34.614H108.243V37.562H113.457C114.513 37.562 115.041 38.0827 115.041 39.124C115.041 40.1653 114.513 40.686 113.457 40.686H108.243V43.876H113.941C114.997 43.876 115.525 44.3967 115.525 45.438C115.525 46.4793 114.997 47 113.941 47H106.483ZM252.89 50.058C252.362 50.058 251.951 49.9113 251.658 49.618C251.365 49.3247 251.218 48.8993 251.218 48.342V45.79C251.218 44.778 251.673 44.206 252.582 44.074C252.905 43.4873 253.132 42.82 253.264 42.072C253.411 41.324 253.484 40.334 253.484 39.102V38.354C253.484 37.65 253.667 37.1147 254.034 36.748C254.415 36.3667 254.951 36.176 255.64 36.176H260.656C261.36 36.176 261.895 36.3667 262.262 36.748C262.643 37.1147 262.834 37.65 262.834 38.354V44.052H262.922C264.081 44.052 264.66 44.6313 264.66 45.79V48.342C264.66 49.486 264.11 50.058 263.01 50.058C261.91 50.058 261.36 49.486 261.36 48.342V47H254.518V48.342C254.518 49.486 253.975 50.058 252.89 50.058ZM255.992 44.074H259.182V39.124H256.762V40.158C256.762 40.862 256.696 41.566 256.564 42.27C256.432 42.974 256.241 43.5753 255.992 44.074ZM271.775 47.242C270.572 47.242 269.524 47.0147 268.629 46.56C267.734 46.1053 267.038 45.4527 266.539 44.602C266.04 43.7513 265.791 42.7467 265.791 41.588C265.791 40.4147 266.04 39.41 266.539 38.574C267.038 37.7233 267.734 37.0707 268.629 36.616C269.524 36.1613 270.572 35.934 271.775 35.934C272.978 35.934 274.026 36.1613 274.921 36.616C275.816 37.0707 276.505 37.7233 276.989 38.574C277.488 39.41 277.737 40.4147 277.737 41.588C277.737 42.7467 277.488 43.7513 276.989 44.602C276.505 45.4527 275.816 46.1053 274.921 46.56C274.026 47.0147 272.978 47.242 271.775 47.242ZM271.775 44.36C272.362 44.36 272.846 44.14 273.227 43.7C273.608 43.26 273.799 42.556 273.799 41.588C273.799 40.6053 273.608 39.9013 273.227 39.476C272.846 39.036 272.362 38.816 271.775 38.816C271.174 38.816 270.682 39.036 270.301 39.476C269.92 39.9013 269.729 40.6053 269.729 41.588C269.729 42.556 269.92 43.26 270.301 43.7C270.682 44.14 271.174 44.36 271.775 44.36ZM288.325 47C287.21 47 286.653 46.45 286.653 45.35C286.653 44.2647 287.21 43.722 288.325 43.722H290.305V35.868L288.963 36.682C288.582 36.9167 288.222 37.012 287.885 36.968C287.548 36.9093 287.262 36.7627 287.027 36.528C286.792 36.2933 286.638 36.0073 286.565 35.67C286.492 35.3327 286.521 34.9953 286.653 34.658C286.785 34.3207 287.049 34.0347 287.445 33.8L290.481 31.908C291.141 31.4973 291.838 31.292 292.571 31.292C293.128 31.292 293.561 31.4387 293.869 31.732C294.177 32.0107 294.331 32.4213 294.331 32.964V43.722H296.091C297.206 43.722 297.763 44.2647 297.763 45.35C297.763 46.45 297.206 47 296.091 47H288.325ZM304.663 47.242C302.741 47.242 301.275 46.5453 300.263 45.152C299.251 43.744 298.745 41.7567 298.745 39.19C298.745 36.6087 299.251 34.6433 300.263 33.294C301.275 31.93 302.741 31.248 304.663 31.248C306.584 31.248 308.051 31.93 309.062 33.294C310.075 34.6433 310.581 36.6013 310.581 39.168C310.581 41.7493 310.075 43.744 309.062 45.152C308.051 46.5453 306.584 47.242 304.663 47.242ZM304.663 44.03C305.367 44.03 305.887 43.6487 306.225 42.886C306.577 42.1087 306.753 40.8693 306.753 39.168C306.753 37.4813 306.577 36.2787 306.225 35.56C305.887 34.8267 305.367 34.46 304.663 34.46C303.959 34.46 303.431 34.8267 303.079 35.56C302.741 36.2787 302.573 37.4813 302.573 39.168C302.573 40.8693 302.741 42.1087 303.079 42.886C303.431 43.6487 303.959 44.03 304.663 44.03ZM319.24 46.604C318.991 47.0293 318.675 47.2787 318.294 47.352C317.927 47.4253 317.583 47.3667 317.26 47.176C316.937 46.9853 316.71 46.714 316.578 46.362C316.461 45.9953 316.527 45.5993 316.776 45.174L324.476 31.908C324.725 31.468 325.033 31.2113 325.4 31.138C325.767 31.0647 326.111 31.1233 326.434 31.314C326.757 31.5047 326.977 31.7833 327.094 32.15C327.226 32.502 327.167 32.8907 326.918 33.316L319.24 46.604ZM316.05 40.73C314.73 40.73 313.703 40.2973 312.97 39.432C312.251 38.552 311.892 37.3933 311.892 35.956C311.892 34.504 312.259 33.36 312.992 32.524C313.725 31.6733 314.745 31.248 316.05 31.248C317.341 31.248 318.353 31.6807 319.086 32.546C319.819 33.3967 320.186 34.5333 320.186 35.956C320.186 37.3933 319.819 38.552 319.086 39.432C318.367 40.2973 317.355 40.73 316.05 40.73ZM316.05 38.31C316.387 38.31 316.644 38.134 316.82 37.782C316.996 37.43 317.084 36.8213 317.084 35.956C317.084 35.0907 316.989 34.4893 316.798 34.152C316.622 33.8147 316.373 33.646 316.05 33.646C315.698 33.646 315.434 33.8147 315.258 34.152C315.082 34.4747 314.994 35.076 314.994 35.956C314.994 36.8507 315.082 37.4667 315.258 37.804C315.434 38.1413 315.698 38.31 316.05 38.31ZM327.666 47.242C326.361 47.242 325.341 46.8093 324.608 45.944C323.889 45.0787 323.53 43.9273 323.53 42.49C323.53 41.038 323.897 39.8867 324.63 39.036C325.363 38.1853 326.375 37.76 327.666 37.76C328.971 37.76 329.991 38.1927 330.724 39.058C331.457 39.9233 331.824 41.0673 331.824 42.49C331.824 43.9273 331.457 45.0787 330.724 45.944C330.005 46.8093 328.986 47.242 327.666 47.242ZM327.666 44.844C328.003 44.844 328.26 44.668 328.436 44.316C328.627 43.964 328.722 43.3553 328.722 42.49C328.722 41.6247 328.627 41.0233 328.436 40.686C328.26 40.3487 328.003 40.18 327.666 40.18C327.329 40.18 327.072 40.3413 326.896 40.664C326.72 40.9867 326.632 41.5953 326.632 42.49C326.632 43.37 326.72 43.986 326.896 44.338C327.072 44.6753 327.329 44.844 327.666 44.844Z" fill="white"/>
<path d="M144.601 47.242C142.885 47.242 141.411 46.912 140.179 46.252C138.947 45.592 138.001 44.6607 137.341 43.458C136.696 42.2553 136.373 40.8473 136.373 39.234C136.373 37.6207 136.696 36.22 137.341 35.032C138.001 33.8293 138.947 32.898 140.179 32.238C141.411 31.578 142.885 31.248 144.601 31.248C145.276 31.248 145.973 31.3287 146.691 31.49C147.425 31.6367 148.07 31.864 148.627 32.172C149.038 32.392 149.324 32.6707 149.485 33.008C149.647 33.3453 149.705 33.69 149.661 34.042C149.617 34.394 149.485 34.7093 149.265 34.988C149.06 35.2667 148.796 35.4573 148.473 35.56C148.151 35.648 147.799 35.5967 147.417 35.406C146.552 34.9807 145.665 34.768 144.755 34.768C143.391 34.768 142.365 35.1567 141.675 35.934C140.986 36.6967 140.641 37.7967 140.641 39.234C140.641 40.686 140.986 41.8007 141.675 42.578C142.365 43.3407 143.391 43.722 144.755 43.722C145.137 43.722 145.547 43.678 145.987 43.59C146.427 43.4873 146.86 43.3333 147.285 43.128C147.725 42.9373 148.114 42.886 148.451 42.974C148.803 43.062 149.089 43.238 149.309 43.502C149.529 43.766 149.661 44.074 149.705 44.426C149.764 44.7633 149.72 45.1007 149.573 45.438C149.427 45.7753 149.155 46.0467 148.759 46.252C148.246 46.56 147.608 46.802 146.845 46.978C146.097 47.154 145.349 47.242 144.601 47.242ZM153.94 47.198C153.294 47.198 152.796 47.022 152.444 46.67C152.092 46.318 151.916 45.812 151.916 45.152V33.338C151.916 32.678 152.092 32.172 152.444 31.82C152.796 31.468 153.294 31.292 153.94 31.292C154.585 31.292 155.084 31.468 155.436 31.82C155.788 32.172 155.964 32.678 155.964 33.338V37.694H157.504L160.694 32.326C160.958 31.8713 161.28 31.5707 161.662 31.424C162.058 31.2627 162.446 31.226 162.828 31.314C163.209 31.402 163.532 31.5853 163.796 31.864C164.06 32.128 164.214 32.4653 164.258 32.876C164.302 33.272 164.177 33.7047 163.884 34.174L161.134 38.486C162.131 39.0433 162.952 39.9893 163.598 41.324L165.072 44.338C165.336 44.8807 165.416 45.3573 165.314 45.768C165.226 46.1787 165.02 46.5087 164.698 46.758C164.39 47.0073 164.023 47.154 163.598 47.198C163.187 47.242 162.791 47.1613 162.41 46.956C162.028 46.7507 161.728 46.4133 161.508 45.944L160.012 42.644C159.733 42.0427 159.388 41.6173 158.978 41.368C158.567 41.1187 158.039 40.994 157.394 40.994H155.964V45.152C155.964 45.812 155.788 46.318 155.436 46.67C155.098 47.022 154.6 47.198 153.94 47.198ZM169.424 47.198C168.881 47.198 168.449 47.0293 168.126 46.692C167.818 46.34 167.664 45.8413 167.664 45.196V33.184C167.664 31.9227 168.295 31.292 169.556 31.292C170.157 31.292 170.619 31.4607 170.942 31.798C171.265 32.1207 171.426 32.5827 171.426 33.184V40.4L177.784 32.436C178.107 32.0253 178.407 31.732 178.686 31.556C178.979 31.38 179.375 31.292 179.874 31.292C180.373 31.292 180.769 31.4607 181.062 31.798C181.355 32.1207 181.502 32.5533 181.502 33.096V45.284C181.502 46.56 180.879 47.198 179.632 47.198C178.385 47.198 177.762 46.56 177.762 45.284V38.068L171.404 46.054C171.067 46.4647 170.766 46.758 170.502 46.934C170.238 47.11 169.879 47.198 169.424 47.198ZM184.93 51.048C183.756 51.048 183.17 50.454 183.17 49.266V45.658C183.17 44.558 183.683 43.964 184.71 43.876C185.956 42.336 186.58 39.5787 186.58 35.604V33.58C186.58 32.1867 187.276 31.49 188.67 31.49H196.26C197.668 31.49 198.372 32.1867 198.372 33.58V43.876H198.768C199.97 43.876 200.572 44.47 200.572 45.658V49.266C200.572 50.454 199.992 51.048 198.834 51.048C197.66 51.048 197.074 50.454 197.074 49.266V47H186.668V49.266C186.668 50.454 186.088 51.048 184.93 51.048ZM188.736 43.876H194.324V34.614H190.298V36.044C190.298 37.848 190.166 39.3953 189.902 40.686C189.638 41.9767 189.249 43.04 188.736 43.876ZM204.493 47.198C203.847 47.198 203.349 47.022 202.997 46.67C202.645 46.318 202.469 45.812 202.469 45.152V33.338C202.469 32.678 202.645 32.172 202.997 31.82C203.349 31.468 203.847 31.292 204.493 31.292C205.138 31.292 205.637 31.468 205.989 31.82C206.341 32.172 206.517 32.678 206.517 33.338V37.694H208.057L211.247 32.326C211.511 31.8713 211.833 31.5707 212.215 31.424C212.611 31.2627 212.999 31.226 213.381 31.314C213.762 31.402 214.085 31.5853 214.349 31.864C214.613 32.128 214.767 32.4653 214.811 32.876C214.855 33.272 214.73 33.7047 214.437 34.174L211.687 38.486C212.684 39.0433 213.505 39.9893 214.151 41.324L215.625 44.338C215.889 44.8807 215.969 45.3573 215.867 45.768C215.779 46.1787 215.573 46.5087 215.251 46.758C214.943 47.0073 214.576 47.154 214.151 47.198C213.74 47.242 213.344 47.1613 212.963 46.956C212.581 46.7507 212.281 46.4133 212.061 45.944L210.565 42.644C210.286 42.0427 209.941 41.6173 209.531 41.368C209.12 41.1187 208.592 40.994 207.947 40.994H206.517V45.152C206.517 45.812 206.341 46.318 205.989 46.67C205.651 47.022 205.153 47.198 204.493 47.198ZM223.101 47.198C222.631 47.198 222.235 47.0807 221.913 46.846C221.59 46.6113 221.385 46.296 221.297 45.9C221.223 45.4893 221.319 45.0273 221.583 44.514L222.727 42.27L217.623 33.888C217.359 33.448 217.256 33.03 217.315 32.634C217.373 32.238 217.564 31.9153 217.887 31.666C218.224 31.4167 218.649 31.292 219.163 31.292C219.691 31.292 220.087 31.424 220.351 31.688C220.629 31.9373 220.901 32.2967 221.165 32.766L224.619 38.574L227.523 32.788C227.713 32.4067 227.948 32.062 228.227 31.754C228.52 31.446 228.96 31.292 229.547 31.292C230.016 31.292 230.412 31.4093 230.735 31.644C231.072 31.864 231.277 32.1793 231.351 32.59C231.424 32.986 231.329 33.448 231.065 33.976L225.147 45.702C224.956 46.0687 224.714 46.4133 224.421 46.736C224.127 47.044 223.687 47.198 223.101 47.198Z" fill="#E90500"/>
</svg>
